<?xml version="1.0" encoding="UTF-8"?>
<svg viewBox="0 0 24 24" xmlns="http://www.w3.org/2000/svg">
  <!-- horizontal row of 3 -->
  <rect x="1" y="4" width="4" height="5" rx="1" fill="#6366f1"/>
  <rect x="10" y="4" width="4" height="5" rx="1" fill="#6366f1"/>
  <rect x="19" y="4" width="4" height="5" rx="1" fill="#6366f1"/>
  <!-- horizontal ruler with ticks -->
  <line x1="1" y1="11" x2="23" y2="11" stroke="#94a3b8" stroke-width="1" stroke-linecap="round"/>
  <line x1="1" y1="11" x2="1" y2="13" stroke="#94a3b8" stroke-width="1"/>
  <line x1="12" y1="11" x2="12" y2="13" stroke="#94a3b8" stroke-width="1"/>
  <line x1="23" y1="11" x2="23" y2="13" stroke="#94a3b8" stroke-width="1"/>
  <line x1="5" y1="12" x2="10" y2="12" stroke="#94a3b8" stroke-width="0.8" stroke-dasharray="1 1"/>
  <line x1="14" y1="12" x2="19" y2="12" stroke="#94a3b8" stroke-width="0.8" stroke-dasharray="1 1"/>
  <!-- vertical col of 3 -->
  <rect x="15" y="1" width="5" height="3" rx="1" fill="#6366f1" opacity="0.6"/>
  <rect x="15" y="10" width="5" height="3" rx="1" fill="#6366f1" opacity="0.6"/>
  <rect x="15" y="19" width="5" height="3" rx="1" fill="#6366f1" opacity="0.6"/>
  <!-- vertical ruler with ticks -->
  <line x1="21" y1="1" x2="21" y2="23" stroke="#94a3b8" stroke-width="1" stroke-linecap="round"/>
  <line x1="21" y1="1" x2="23" y2="1" stroke="#94a3b8" stroke-width="1"/>
  <line x1="21" y1="11.5" x2="23" y2="11.5" stroke="#94a3b8" stroke-width="1"/>
  <line x1="21" y1="23" x2="23" y2="23" stroke="#94a3b8" stroke-width="1"/>
  <line x1="22" y1="4" x2="22" y2="10" stroke="#94a3b8" stroke-width="0.8" stroke-dasharray="1 1"/>
  <line x1="22" y1="13" x2="22" y2="19" stroke="#94a3b8" stroke-width="0.8" stroke-dasharray="1 1"/>
</svg>
