<svg xmlns="http://www.w3.org/2000/svg" viewBox="0 0 64 64" width="150" height="150">
  <path d="M34.5,24.5L28.5,30.5L29.5,31.5L28.5,32.5L34.5,38.5L32.5,40.5L21.5,29.5L20.5,30.5L18.5,28.5L19.5,27.5L17.5,25.5L16.5,26.5L15.5,25.5L13.5,27.5L14.5,28.5L13.5,29.5L15.5,31.5L16.5,30.5L17.5,31.5L18.5,30.5L29.5,41.5L30.5,40.5L32.5,42.5L31.5,43.5L32.5,44.5L31.5,45.5L32.5,46.5L31.5,47.5L32.5,48.5L31.5,49.5L33.5,51.5L28.5,56.5L26.5,54.5L24.5,56.5L28.5,60.5L35.5,53.5L34.5,52.5L36.5,50.5L38.5,52.5L37.5,53.5L41.5,57.5L39.5,59.5L41.5,61.5L45.5,57.5L38.5,50.5L39.5,49.5L38.5,48.5L39.5,47.5L38.5,46.5L39.5,45.5L38.5,44.5L40.5,42.5L42.5,44.5L52.5,34.5L51.5,33.5L53.5,31.5L54.5,32.5L56.5,30.5L55.5,29.5L56.5,28.5L54.5,26.5L53.5,27.5L52.5,26.5L50.5,28.5L51.5,29.5L50.5,30.5L51.5,31.5L40.5,42.5L36.5,38.5L42.5,32.5L41.5,31.5L42.5,30.5L36.5,24.5L35.5,25.5Z M37.5,51.5L38.5,50.5L39.5,51.5L38.5,52.5Z M33.5,51.5L34.5,50.5L35.5,51.5L34.5,52.5Z M38.5,42.5L39.5,41.5L40.5,42.5L39.5,43.5Z M32.5,41.5L33.5,40.5L35.5,42.5L37.5,40.5L38.5,41.5L38.5,45.5L37.5,46.5L35.5,44.5L33.5,46.5L32.5,45.5Z M30.5,40.5L31.5,39.5L32.5,40.5L31.5,41.5Z M35.5,39.5L36.5,38.5L37.5,39.5L36.5,40.5Z M33.5,39.5L34.5,38.5L35.5,39.5L34.5,40.5Z M34.5,38.5L35.5,37.5L36.5,38.5L35.5,39.5Z M50.5,32.5L51.5,31.5L52.5,32.5L51.5,33.5Z M18.5,30.5L19.5,29.5L20.5,30.5L19.5,31.5Z" fill="#334155" fill-rule="evenodd"/>
  <rect x="29.0" y="40.0" width="12.0" height="12.0" fill="#334155"/>
  <circle cx="35.0" cy="31.0" r="8.5" fill="#334155"/>
  <path d="M30.0,42.0 L30.0,50.0 L35.0,46.0 Z M40.0,42.0 L40.0,50.0 L35.0,46.0 Z" fill="#ffffff"/>
  <circle cx="29.0" cy="9.0" r="3.8" fill="#38bdf8"/>
  <circle cx="42.0" cy="10.0" r="3.8" fill="#f43f5e"/>
  <circle cx="21.0" cy="15.0" r="3.8" fill="#f59e0b"/>
  <circle cx="50.0" cy="19.0" r="3.8" fill="#10b981"/>
</svg>
