<svg xmlns="http://www.w3.org/2000/svg" viewBox="0 0 480 300" width="480" height="300"><g transform="translate(282.0,98.77777777777779) scale(0.4) rotate(2) translate(-307.4,-127.0)"><g transform="rotate(12,181.0,110.0)"><path d="M1.00,2.00 C0.00,3.33 -2.33,3.33 0.00,8.00 C2.33,12.67 8.83,22.33 15.00,30.00 C21.17,37.67 29.00,46.17 37.00,54.00 C45.00,61.83 51.67,68.50 63.00,77.00 C74.33,85.50 88.83,95.83 105.00,105.00 C121.17,114.17 146.33,125.83 160.00,132.00 C173.67,138.17 182.50,147.67 187.00,142.00 C191.50,136.33 190.00,104.50 187.00,98.00 C184.00,91.50 175.17,102.33 169.00,103.00 C162.83,103.67 158.50,104.50 150.00,102.00 C141.50,99.50 130.50,95.33 118.00,88.00 C105.50,80.67 92.17,71.83 75.00,58.00 C57.83,44.17 26.50,14.67 15.00,5.00 C3.50,-4.67 8.33,0.50 6.00,0.00 C3.67,-0.50 2.00,0.67 1.00,2.00 Z" fill="#1f2937"/></g><path d="M178.00,101.00 C175.50,108.17 170.17,130.17 178.00,139.00 C185.83,147.83 216.33,150.33 225.00,154.00 C233.67,157.67 229.00,156.83 230.00,161.00 C231.00,165.17 229.83,174.17 231.00,179.00 C232.17,183.83 234.17,186.67 237.00,190.00 C239.83,193.33 238.83,193.17 248.00,199.00 C257.17,204.83 284.50,226.83 292.00,225.00 C299.50,223.17 278.00,194.17 293.00,188.00 C308.00,181.83 369.00,189.67 382.00,188.00 C395.00,186.33 372.83,180.67 371.00,178.00 C369.17,175.33 369.33,174.67 371.00,172.00 C372.67,169.33 376.67,165.00 381.00,162.00 C385.33,159.00 393.00,155.33 397.00,154.00 C401.00,152.67 401.50,153.00 405.00,154.00 C408.50,155.00 414.33,156.33 418.00,160.00 C421.67,163.67 424.67,172.67 427.00,176.00 C429.33,179.33 429.17,179.83 432.00,180.00 C434.83,180.17 441.00,179.00 444.00,177.00 C447.00,175.00 449.00,171.00 450.00,168.00 C451.00,165.00 451.17,165.50 450.00,159.00 C448.83,152.50 446.33,137.50 443.00,129.00 C439.67,120.50 432.33,112.83 430.00,108.00 C427.67,103.17 428.17,105.50 429.00,100.00 C429.83,94.50 434.33,82.83 435.00,75.00 C435.67,67.17 436.17,53.17 433.00,53.00 C429.83,52.83 419.83,74.33 416.00,74.00 C412.17,73.67 411.33,55.00 410.00,51.00 C408.67,47.00 409.50,48.50 408.00,50.00 C406.50,51.50 403.33,55.50 401.00,60.00 C398.67,64.50 395.17,70.67 394.00,77.00 C392.83,83.33 396.00,92.83 394.00,98.00 C392.00,103.17 385.83,105.50 382.00,108.00 C378.17,110.50 374.00,112.17 371.00,113.00 C368.00,113.83 367.33,113.83 364.00,113.00 C360.67,112.17 361.50,117.67 351.00,108.00 C340.50,98.33 311.17,65.17 301.00,55.00 C290.83,44.83 294.33,49.17 290.00,47.00 C285.67,44.83 279.67,42.67 275.00,42.00 C270.33,41.33 265.17,42.33 262.00,43.00 C258.83,43.67 264.33,39.00 256.00,46.00 C247.67,53.00 222.50,76.67 212.00,85.00 C201.50,93.33 198.67,93.33 193.00,96.00 C187.33,98.67 180.50,93.83 178.00,101.00 Z" fill="#1f2937"/><g transform="rotate(-4,305.0,195.0)"><path d="M287.00,181.00 C272.50,187.67 284.50,212.00 287.00,221.00 C289.50,230.00 299.17,232.00 302.00,235.00 C304.83,238.00 303.50,234.67 304.00,239.00 C304.50,243.33 302.83,254.00 305.00,261.00 C307.17,268.00 310.67,273.00 317.00,281.00 C323.33,289.00 333.67,300.67 343.00,309.00 C352.33,317.33 363.67,324.67 373.00,331.00 C382.33,337.33 393.67,344.00 399.00,347.00 C404.33,350.00 401.67,348.83 405.00,349.00 C408.33,349.17 416.83,349.83 419.00,348.00 C421.17,346.17 419.17,340.83 418.00,338.00 C416.83,335.17 419.17,335.83 412.00,331.00 C404.83,326.17 385.33,316.50 375.00,309.00 C364.67,301.50 355.83,292.33 350.00,286.00 C344.17,279.67 342.50,275.83 340.00,271.00 C337.50,266.17 335.83,263.00 335.00,257.00 C334.17,251.00 333.00,245.67 335.00,235.00 C337.00,224.33 344.67,200.33 347.00,193.00 C349.33,185.67 347.33,191.33 349.00,191.00 C350.67,190.67 353.50,190.17 357.00,191.00 C360.50,191.83 367.33,194.50 370.00,196.00 C372.67,197.50 374.17,198.50 373.00,200.00 C371.83,201.50 364.67,202.67 363.00,205.00 C361.33,207.33 362.50,212.00 363.00,214.00 C363.50,216.00 364.67,216.50 366.00,217.00 C367.33,217.50 368.50,218.00 371.00,217.00 C373.50,216.00 378.67,213.00 381.00,211.00 C383.33,209.00 384.33,207.83 385.00,205.00 C385.67,202.17 385.50,196.83 385.00,194.00 C384.50,191.17 383.83,190.17 382.00,188.00 C380.17,185.83 389.83,182.17 374.00,181.00 C358.17,179.83 301.50,174.33 287.00,181.00 Z" fill="#1f2937"/></g></g></svg>