<svg xmlns="http://www.w3.org/2000/svg" viewBox="0 0 18 18" width="18" height="18">
  <!-- body -->
  <ellipse cx="9" cy="9" rx="1.2" ry="5" fill="#3730a3"/>
  <!-- upper-left wing -->
  <path d="M9 7 Q3 2 2.5 6.5 Q2 9.5 9 9" fill="#4f46e5"/>
  <path d="M9 7.5 Q4.5 4 4 7 Q3.5 9 9 9" fill="#38bdf8" opacity="0.55"/>
  <!-- upper-right wing -->
  <path d="M9 7 Q15 2 15.5 6.5 Q16 9.5 9 9" fill="#4f46e5"/>
  <path d="M9 7.5 Q13.5 4 14 7 Q14.5 9 9 9" fill="#38bdf8" opacity="0.55"/>
  <!-- lower-left wing -->
  <path d="M9 10 Q3.5 12 3 15.5 Q4 17 9 11" fill="#4f46e5"/>
  <!-- lower-right wing -->
  <path d="M9 10 Q14.5 12 15 15.5 Q14 17 9 11" fill="#4f46e5"/>
  <!-- antennae -->
  <path d="M8.3 4.2 Q6.5 2.5 5.5 1.5" fill="none" stroke="#3730a3" stroke-width="0.8" stroke-linecap="round"/>
  <circle cx="5.5" cy="1.5" r="0.8" fill="#3730a3"/>
  <path d="M9.7 4.2 Q11.5 2.5 12.5 1.5" fill="none" stroke="#3730a3" stroke-width="0.8" stroke-linecap="round"/>
  <circle cx="12.5" cy="1.5" r="0.8" fill="#3730a3"/>
</svg>
