<?xml version="1.0" encoding="UTF-8"?>
<svg viewBox="0 0 24 24" xmlns="http://www.w3.org/2000/svg">
  <path d="M12,2 L13.5,5.5 L17,4.5 L17.5,8 L21,9 L19.5,12 L21,15 L17.5,16 L17,19.5 L13.5,18.5 L12,22 L10.5,18.5 L7,19.5 L6.5,16 L3,15 L4.5,12 L3,9 L6.5,8 L7,4.5 L10.5,5.5 Z" fill="#64748b" stroke="#334155" stroke-width="0.8" stroke-linejoin="round"/>
  <circle cx="12" cy="12" r="4" fill="#334155"/>
  <circle cx="19" cy="5" r="4.5" fill="#f43f5e"/>
  <circle cx="17.8" cy="4.2" r="0.9" fill="white" opacity="0.9"/>
  <circle cx="20.2" cy="4.2" r="0.9" fill="white" opacity="0.9"/>
  <circle cx="17.8" cy="6.2" r="0.9" fill="white" opacity="0.9"/>
  <circle cx="20.2" cy="6.2" r="0.9" fill="white" opacity="0.9"/>
  <line x1="19" y1="3" x2="19" y2="7" stroke="white" stroke-width="0.8"/>
</svg>
