/* XPM */
static char * export_xpm[] = {
"16 16 5 1",
" 	s None	c None",
".	c black",
"X	c #6959cd",
"o	c white",
"O	c grey50",
"                ",
"                ",
"                ",
" ..........     ",
" .XXXooooX...   ",
" .XXXoXXXX.oo.  ",
" .XXXoooXX....  ",
" .XXXoXXXX.XX.  ",
" .X..oooo..XX.  ",
" .............  ",
"  O..O  O..O    ",
"   OO    OO     ",
"                ",
"                ",
"                ",
"                "};
