<?xml version="1.0" encoding="UTF-8" standalone="no"?>
<svg
   viewBox="0 0 64 64"
   version="1.1"
   id="svg1"
   xmlns="http://www.w3.org/2000/svg">
  <defs id="defs1" />
  <rect
     x="6" y="12" width="52" height="40" rx="8"
     fill="#38bdf8" stroke="#334155" stroke-width="2.5" id="rect1" />
  <path
     transform="translate(-26,-23) scale(1.5)"
     d="m 26.919991,38.237504 q 0,-0.7 0.2,-1.22 0.2,-0.54 0.6,-0.98 0.42,-0.44 1.06,-0.9 0.5,-0.36 0.84,-0.68 0.36,-0.34 0.54,-0.7 0.2,-0.38 0.2,-0.84 0,-0.64 -0.46,-0.96 -0.44,-0.34 -1.22,-0.34 -0.7,0 -1.48,0.24 -0.76,0.24 -1.76,0.72 l -1.06,-2.14 q 1.14,-0.62 2.22,-0.92 1.1,-0.3 2.3,-0.3 1.22,0 2.18,0.4 0.96,0.4 1.52,1.2 0.58,0.78 0.58,1.94 0,0.86 -0.24,1.46 -0.22,0.6 -0.72,1.1 -0.5,0.48 -1.28,1.06 -0.48,0.36 -0.8,0.64 -0.32,0.26 -0.48,0.58 -0.16,0.3 -0.16,0.78 v 0.58 h -2.58 z m 1.32,5.66 q -0.86,0 -1.34,-0.46 -0.48,-0.46 -0.48,-1.3 0,-0.88 0.46,-1.32 0.48,-0.44 1.36,-0.44 0.86,0 1.32,0.46 0.48,0.46 0.48,1.3 0,0.8 -0.48,1.28 -0.48,0.48 -1.32,0.48 z m 7.140008,-7.02614 v -2.44 h 5.24 v 2.44 z"
     fill="white" stroke="white" stroke-width="0.8" stroke-linejoin="round" />
</svg>
