/* XPM */
static char * nomark_xpm[] = {
"32 32 206 2",
"  	c None",
". 	c #1C75B4",
"+ 	c #1D76B5",
"@ 	c #0773B4",
"# 	c #0774B4",
"$ 	c #0873B4",
"% 	c #0774B5",
"& 	c #0674B4",
"* 	c #1676B4",
"= 	c #2177B4",
"- 	c #2A78B5",
"; 	c #2C77B4",
"> 	c #0473B4",
", 	c #0573B4",
"' 	c #0474B4",
") 	c #0574B4",
"! 	c #2977B4",
"~ 	c #3178B5",
"{ 	c #2A78B4",
"] 	c #0A73B4",
"^ 	c #0773B3",
"/ 	c #2F8FC4",
"( 	c #3293C7",
"_ 	c #3394C7",
": 	c #3394C8",
"< 	c #3294C8",
"[ 	c #3293C8",
"} 	c #2888BF",
"| 	c #0573B3",
"1 	c #2E79B5",
"2 	c #278AC1",
"3 	c #58C9F4",
"4 	c #5CD1FF",
"5 	c #5DD2FF",
"6 	c #5CD2FF",
"7 	c #48B2DF",
"8 	c #2075B4",
"9 	c #1873B3",
"0 	c #0572B3",
"a 	c #2A8CC2",
"b 	c #1F75B4",
"c 	c #2278B5",
"d 	c #2C8CC0",
"e 	c #3FA3D1",
"f 	c #1C76B4",
"g 	c #3391C2",
"h 	c #5ACFF7",
"i 	c #5BD1FA",
"j 	c #40A4D2",
"k 	c #1D77B5",
"l 	c #2277B4",
"m 	c #48BBBF",
"n 	c #0E991E",
"o 	c #1C9C46",
"p 	c #4DC1D3",
"q 	c #1C76B5",
"r 	c #2178B4",
"s 	c #48BBC0",
"t 	c #0E9919",
"u 	c #0E9A1A",
"v 	c #1E9B4D",
"w 	c #5CD2FE",
"x 	c #389DD0",
"y 	c #1B76B5",
"z 	c #1D76B4",
"A 	c #4ABDC4",
"B 	c #0E991A",
"C 	c #0E9A19",
"D 	c #0D9A1A",
"E 	c #2EA57A",
"F 	c #3298CD",
"G 	c #1B76B4",
"H 	c #0471B3",
"I 	c #0573B5",
"J 	c #4BBEC8",
"K 	c #0D991B",
"L 	c #1F9D55",
"M 	c #55CAEB",
"N 	c #3198CD",
"O 	c #0470B2",
"P 	c #4CBFCC",
"Q 	c #0E991D",
"R 	c #0D9919",
"S 	c #1B9C4C",
"T 	c #54C8E8",
"U 	c #1976B4",
"V 	c #5DD3FF",
"W 	c #5BCFF3",
"X 	c #5DD2FD",
"Y 	c #4DC0D0",
"Z 	c #0F9922",
"` 	c #199B42",
" .	c #53C7E3",
"..	c #377CB6",
"+.	c #0370B2",
"@.	c #3390C2",
"#.	c #5DD2FC",
"$.	c #3BAE9C",
"%.	c #0D9818",
"&.	c #2DA479",
"*.	c #59CEF4",
"=.	c #4EC2D3",
"-.	c #119928",
";.	c #199B3D",
">.	c #53C6E1",
",.	c #3095CB",
"'.	c #417FB7",
").	c #3B7FB8",
"!.	c #2E8EC4",
"~.	c #48BCC2",
"{.	c #2BA371",
"].	c #5AD0F7",
"^.	c #4FC3D6",
"/.	c #139A2C",
"(.	c #149933",
"_.	c #51C5DD",
":.	c #2C8EC5",
"<.	c #4580B7",
"[.	c #397EB7",
"}.	c #2E8DC3",
"|.	c #47BBC0",
"1.	c #36AC90",
"2.	c #5CD1FC",
"3.	c #50C4D9",
"4.	c #149931",
"5.	c #119927",
"6.	c #4FC1D6",
"7.	c #2B8DC4",
"8.	c #1B72B2",
"9.	c #3A7EB7",
"0.	c #5CD2FC",
"a.	c #37AA93",
"b.	c #0D991A",
"c.	c #3AAE9D",
"d.	c #51C5DB",
"e.	c #169A35",
"f.	c #0F9820",
"g.	c #4EC0D0",
"h.	c #0470B1",
"i.	c #3B7EB7",
"j.	c #5BD1FB",
"k.	c #33A987",
"l.	c #11992C",
"m.	c #4DC0CE",
"n.	c #2B8DC5",
"o.	c #2378B5",
"p.	c #59CEF5",
"q.	c #28A26D",
"r.	c #0E981C",
"s.	c #2E8FC4",
"t.	c #046FB1",
"u.	c #57CCF0",
"v.	c #239F5D",
"w.	c #4BBDCA",
"x.	c #318FC2",
"y.	c #2E8DC4",
"z.	c #56CAEB",
"A.	c #1D9D51",
"B.	c #43B6B5",
"C.	c #3190C2",
"D.	c #2F8EC3",
"E.	c #55C9E5",
"F.	c #1E9C51",
"G.	c #0D981A",
"H.	c #3FB0A8",
"I.	c #2073B3",
"J.	c #0371B3",
"K.	c #308FC2",
"L.	c #57CAE9",
"M.	c #2D79B5",
"N.	c #3F7EB7",
"O.	c #2778B5",
"P.	c #407EB7",
"Q.	c #2D8CC1",
"R.	c #5BD1FF",
"S.	c #2F8EC1",
"T.	c #2D7AB6",
"U.	c #1173B3",
"V.	c #59CCF7",
"W.	c #2476B4",
"X.	c #288AC2",
"Y.	c #59CBF6",
"Z.	c #5ACEFA",
"`.	c #2175B3",
" +	c #0F73B4",
".+	c #0C75B5",
"++	c #3292C5",
"@+	c #3393C7",
"#+	c #3294C7",
"$+	c #3493C6",
"%+	c #147AB7",
"&+	c #1374B3",
"*+	c #0472B4",
"=+	c #0473B3",
"-+	c #3378B4",
";+	c #0972B3",
">+	c #0474B5",
",+	c #0B73B4",
"'+	c #3A7BB5",
")+	c #2075B3",
"!+	c #337BB6",
"~+	c #347BB6",
"{+	c #347CB6",
"]+	c #337CB6",
"^+	c #2176B4",
"/+	c #3179B5",
"        . + @ @ @ # # # $ # @ # @ % # # & # # # # * = -         ",
"    ; > > > > > > > > > , > > > > , , ' > > ) ) > > > > ' !     ",
"  ~ , , > > > > > > > > > > > ' , > > > > > , , > > > > > > {   ",
"  ] , > > ^ / ( _ : < < _ ( : : : : [ : : : < : : < } > > > |   ",
"1 > > > 2 3 4 5 5 5 5 5 5 5 5 5 5 5 5 6 6 6 6 5 5 6 5 7 > > > 8 ",
"9 > > 0 3 5 5 5 5 5 5 5 5 5 5 5 5 6 5 5 6 5 6 5 6 5 6 6 a > > b ",
"c > > d 6 5 5 5 5 5 5 5 6 5 5 5 5 6 5 6 6 6 6 6 6 6 6 6 e > > f ",
"c > ' g 6 5 5 6 5 5 5 5 5 5 5 6 5 6 5 6 6 6 6 h i 6 6 6 j > > k ",
"l > > g 4 6 6 6 5 5 6 5 5 5 5 5 6 5 6 6 6 6 m n o p 6 6 j > > q ",
"r > > g 6 5 6 6 5 5 5 5 5 5 5 5 5 6 6 6 6 s t u t v w 6 x > > y ",
"z , ' g 6 5 6 5 5 5 5 5 5 6 5 5 5 6 6 6 A B C D B E w 6 F > , G ",
"H , I g 4 5 5 5 5 5 5 5 5 5 5 6 6 6 6 J K C u t L M 5 6 N > , y ",
"O > I g 6 5 5 5 5 5 6 5 5 5 5 6 6 6 P Q R t t S T 6 5 6 F > > U ",
"O > > g 6 5 5 V W X 6 6 5 6 6 5 6 Y Z R R t `  .6 5 5 6 F > > ..",
"+.> > @.6 5 #.$.%.&.*.6 5 6 6 6 =.-.R R R ;.>.6 6 5 5 6 ,.> > '.",
").> > !.4 5 ~.B t R {.].5 6 6 ^./.t t R (._.6 6 6 5 5 6 :.> > <.",
"[.> > }.4 6 |.B B t C 1.2.6 3.4.t t t 5.6.5 5 6 6 6 6 4 7.> > 8.",
"9.> > }.4 6 0.a.b.R R b.c.d.e.t R t f.g.5 6 5 5 6 6 6 6 7.> > h.",
"i.> > }.4 6 5 j.k.b.R R R l.R R t Q m.5 5 6 5 5 5 6 5 6 n.> > h.",
"o.> > }.4 6 5 6 p.q.R R R R R R r.P 6 5 5 5 5 5 6 6 6 6 s.> > t.",
"0 ) > }.4 5 6 6 6 u.v.R R R R R w.6 5 6 6 5 6 6 6 6 6 6 x.> , t.",
"H , > y.4 5 5 5 6 6 z.A.R R R B.6 5 5 6 6 5 5 5 6 6 5 6 C.> > t.",
"H , > D.6 5 5 5 5 6 6 E.F.G.H.V 5 5 5 5 5 5 5 5 6 5 6 6 C.> > I.",
"J., , K.4 5 6 5 5 5 5 5 h L.V 5 5 5 5 6 6 5 5 6 6 6 5 5 C.> , M.",
"N., , K.6 6 6 5 5 5 5 5 5 5 5 5 5 5 5 6 5 5 5 5 6 6 6 6 K.> , O.",
"P.> > Q.6 5 5 5 5 5 5 5 5 5 5 6 5 5 5 6 6 5 5 6 6 6 6 R.S.> > T.",
"U.> > , 3 6 6 5 5 5 5 5 5 5 5 6 6 6 5 6 6 6 5 6 6 6 6 V.# > > U.",
"W.> > , X.Y.6 6 6 6 6 6 6 6 6 6 6 6 6 6 6 6 6 6 6 6 Z.( > > , `.",
"   +> > > .+++@+@+@+_ _ #+_ @+@+_ ( ( ( #+( @+( @+$+%+> > , &+  ",
"    *+> > > , , ) , > , , > ) > , > , > ' > > > > > > > > =+-+  ",
"      ;+> > > > , > > > , , > , ' > , >+> , , , > > > > ,+'+    ",
"        1 )+!+~+{+~+{+~+{+{+!+~+~+{+]+]+]+{+{+!+]+{+^+/+        "};
