/* XPM */
static char * mark_xpm[] = {
"32 32 208 2",
"  	c None",
". 	c #000000",
"+ 	c #1C75B4",
"@ 	c #1D76B5",
"# 	c #0773B4",
"$ 	c #0774B4",
"% 	c #0873B4",
"& 	c #0774B5",
"* 	c #0674B4",
"= 	c #1676B4",
"- 	c #2177B4",
"; 	c #2A78B5",
"> 	c #2C77B4",
", 	c #0473B4",
"' 	c #0573B4",
") 	c #0474B4",
"! 	c #0574B4",
"~ 	c #2977B4",
"{ 	c #3178B5",
"] 	c #2A78B4",
"^ 	c #0A73B4",
"/ 	c #0773B3",
"( 	c #2F8FC4",
"_ 	c #3293C7",
": 	c #3394C7",
"< 	c #3394C8",
"[ 	c #3294C8",
"} 	c #3293C8",
"| 	c #2888BF",
"1 	c #0573B3",
"2 	c #2E79B5",
"3 	c #278AC1",
"4 	c #58C9F4",
"5 	c #5CD1FF",
"6 	c #5DD2FF",
"7 	c #5CD2FF",
"8 	c #48B2DF",
"9 	c #2075B4",
"0 	c #1873B3",
"a 	c #0572B3",
"b 	c #2A8CC2",
"c 	c #1F75B4",
"d 	c #2278B5",
"e 	c #2C8CC0",
"f 	c #3FA3D1",
"g 	c #1C76B4",
"h 	c #3391C2",
"i 	c #5ACFF7",
"j 	c #5BD1FA",
"k 	c #40A4D2",
"l 	c #1D77B5",
"m 	c #2277B4",
"n 	c #48BBBF",
"o 	c #0E991E",
"p 	c #1C9C46",
"q 	c #4DC1D3",
"r 	c #1C76B5",
"s 	c #2178B4",
"t 	c #48BBC0",
"u 	c #0E9919",
"v 	c #0E9A1A",
"w 	c #1E9B4D",
"x 	c #5CD2FE",
"y 	c #389DD0",
"z 	c #1B76B5",
"A 	c #1D76B4",
"B 	c #4ABDC4",
"C 	c #0E991A",
"D 	c #0E9A19",
"E 	c #0D9A1A",
"F 	c #2EA57A",
"G 	c #3298CD",
"H 	c #1B76B4",
"I 	c #0471B3",
"J 	c #0573B5",
"K 	c #4BBEC8",
"L 	c #0D991B",
"M 	c #1F9D55",
"N 	c #55CAEB",
"O 	c #3198CD",
"P 	c #0470B2",
"Q 	c #4CBFCC",
"R 	c #0E991D",
"S 	c #0D9919",
"T 	c #1B9C4C",
"U 	c #54C8E8",
"V 	c #1976B4",
"W 	c #5DD3FF",
"X 	c #5BCFF3",
"Y 	c #5DD2FD",
"Z 	c #4DC0D0",
"` 	c #0F9922",
" .	c #199B42",
"..	c #53C7E3",
"+.	c #377CB6",
"@.	c #0370B2",
"#.	c #3390C2",
"$.	c #5DD2FC",
"%.	c #3BAE9C",
"&.	c #0D9818",
"*.	c #2DA479",
"=.	c #59CEF4",
"-.	c #4EC2D3",
";.	c #119928",
">.	c #199B3D",
",.	c #53C6E1",
"'.	c #3095CB",
").	c #417FB7",
"!.	c #3B7FB8",
"~.	c #2E8EC4",
"{.	c #48BCC2",
"].	c #2BA371",
"^.	c #5AD0F7",
"/.	c #4FC3D6",
"(.	c #139A2C",
"_.	c #149933",
":.	c #51C5DD",
"<.	c #2C8EC5",
"[.	c #4580B7",
"}.	c #397EB7",
"|.	c #2E8DC3",
"1.	c #47BBC0",
"2.	c #36AC90",
"3.	c #5CD1FC",
"4.	c #50C4D9",
"5.	c #149931",
"6.	c #119927",
"7.	c #4FC1D6",
"8.	c #2B8DC4",
"9.	c #1B72B2",
"0.	c #3A7EB7",
"a.	c #5CD2FC",
"b.	c #37AA93",
"c.	c #0D991A",
"d.	c #3AAE9D",
"e.	c #51C5DB",
"f.	c #169A35",
"g.	c #0F9820",
"h.	c #4EC0D0",
"i.	c #0470B1",
"j.	c #3B7EB7",
"k.	c #5BD1FB",
"l.	c #33A987",
"m.	c #11992C",
"n.	c #4DC0CE",
"o.	c #2B8DC5",
"p.	c #2378B5",
"q.	c #59CEF5",
"r.	c #28A26D",
"s.	c #0E981C",
"t.	c #2E8FC4",
"u.	c #046FB1",
"v.	c #57CCF0",
"w.	c #239F5D",
"x.	c #4BBDCA",
"y.	c #318FC2",
"z.	c #2E8DC4",
"A.	c #56CAEB",
"B.	c #1D9D51",
"C.	c #43B6B5",
"D.	c #3190C2",
"E.	c #2F8EC3",
"F.	c #55C9E5",
"G.	c #1E9C51",
"H.	c #0D981A",
"I.	c #3FB0A8",
"J.	c #2073B3",
"K.	c #0371B3",
"L.	c #308FC2",
"M.	c #57CAE9",
"N.	c #2D79B5",
"O.	c #3F7EB7",
"P.	c #2778B5",
"Q.	c #407EB7",
"R.	c #2D8CC1",
"S.	c #5BD1FF",
"T.	c #2F8EC1",
"U.	c #2D7AB6",
"V.	c #1173B3",
"W.	c #59CCF7",
"X.	c #2476B4",
"Y.	c #288AC2",
"Z.	c #59CBF6",
"`.	c #5ACEFA",
" +	c #2175B3",
".+	c #0F73B4",
"++	c #0C75B5",
"@+	c #3292C5",
"#+	c #3393C7",
"$+	c #3294C7",
"%+	c #3493C6",
"&+	c #147AB7",
"*+	c #1374B3",
"=+	c #0472B4",
"-+	c #0473B3",
";+	c #3378B4",
">+	c #0972B3",
",+	c #0474B5",
"'+	c #0B73B4",
")+	c #3A7BB5",
"!+	c #2075B3",
"~+	c #337BB6",
"{+	c #347BB6",
"]+	c #347CB6",
"^+	c #337CB6",
"/+	c #2176B4",
"(+	c #3179B5",
"_+	c #FFFFFF",
"        + @ # # # $ $ $ % $ # $ # & $ $ * $ $ $ $ = - ;         ",
"    > , , , , , , , , , ' , , , , ' ' ) , , ! ! , , , , ) ~     ",
"  { ' ' , , , , , , , , , , , ) ' , , , , , ' ' , , , , , , ]   ",
"  ^ ' , , / ( _ : < [ [ : _ < < < < } < < < [ < < [ | , , , 1   ",
"2 , , , 3 $.W W W W W W W W W W W W W W W W W W W W W 8 , , , 9 ",
"0 , , a $.W W W W W W W W W W W W W W W W W W W W W W W b , , c ",
"d , , e W W W W W W W W W W W W W W W W W W W W W W W W f , , g ",
"d , ) h W W W W W W W W W W W W W W W W W W W $.W W W W k , , l ",
"m , , h W W W W W W W W W W W W W W W W W W n o p q W W k , , r ",
"s , , h W W W W W W W W W W W W W W W W W t u v u w W W y , , z ",
"A ' ) h W W W W W W W W W W W W W W W W B C D E C F W W G , ' H ",
"I ' J h W W W W W W W W W W W W W W W K L D v u M X W W O , ' z ",
"P , J h W W W W W W W W W W W W W W Q R S u u T U W W W G , , V ",
"P , , h W W W W $.W W W W W W W W Z ` S S u  ...W W W W G , , +.",
"@., , #.W W W %.&.*.$.W W W W W -.;.S S S >.,.W W W W W '., , ).",
"!., , ~.W W {.C u S ].$.W W W /.(.u u S _.:.W W W W W W <., , [.",
"}., , |.W W 1.C C u D 2.W W 4.5.u u u 6.7.W W W W W W W 8., , 9.",
"0., , |.W W W b.c.S S c.d.e.f.u S u g.h.W W W W W W W W 8., , i.",
"j., , |.W W W W l.c.S S S m.S S u R n.W W W W W W W W W o., , i.",
"p., , |.W W W W $.r.S S S S S S s.Q W W W W W W W W W W t., , u.",
"a ! , |.W W W W W $.w.S S S S S x.W W W W W W W W W W W y., ' u.",
"I ' , z.W W W W W W X B.S S S C.W W W W W W W W W W W W D., , u.",
"I ' , E.W W W W W W W F.G.H.I.W W W W W W W W W W W W W D., , J.",
"K.' ' L.W W W W W W W W $.M.W W W W W W W W W W W W W W D., ' N.",
"O.' ' L.W W W W W W W W W W W W W W W W W W W W W W W W L., ' P.",
"Q., , R.W W W W W W W W W W W W W W W W W W W W W W W W T., , U.",
"V., , ' $.W W W W W W W W W W W W W W W W W W W W W W $.$ , , V.",
"X., , ' Y.$.W W W W W W W W W W W W W W W W W W W W $._ , , '  +",
"  .+, , , ++@+#+#+#+: : $+: #+#+: _ _ _ $+_ #+_ #+%+&+, , ' *+  ",
"    =+, , , ' ' ! ' , ' ' , ! , ' , ' , ) , , , , , , , , -+;+  ",
"      >+, , , , ' , , , ' ' , ' ) , ' ,+, ' ' ' , , , , '+)+    ",
"        2 !+~+{+]+{+]+{+]+]+~+{+{+]+^+^+^+]+]+~+^+]+/+(+        "};
