/* XPM */
static char * nomark_xpm[] = {
"32 32 115 2",
"  	c None",
". 	c #000000",
"+ 	c #2F79B5",
"@ 	c #1A74B4",
"# 	c #1E77B5",
"$ 	c #0673B4",
"% 	c #0773B4",
"& 	c #0774B4",
"* 	c #1C75B5",
"= 	c #1B74B3",
"- 	c #2F78B4",
"; 	c #2676B4",
"> 	c #0372B3",
", 	c #0573B4",
"' 	c #0473B4",
") 	c #0372B4",
"! 	c #3079B5",
"~ 	c #2575B4",
"{ 	c #377AB5",
"] 	c #0473B3",
"^ 	c #0D75B4",
"/ 	c #2E8FC3",
"( 	c #3391C4",
"_ 	c #3392C4",
": 	c #3291C5",
"< 	c #3392C5",
"[ 	c #3292C4",
"} 	c #3291C4",
"| 	c #2E8EC2",
"1 	c #0C75B4",
"2 	c #2F7AB5",
"3 	c #379ACD",
"4 	c #5BCFFA",
"5 	c #5CD2FF",
"6 	c #5DD2FF",
"7 	c #5BCEF9",
"8 	c #3A9ECF",
"9 	c #317AB6",
"0 	c #2375B4",
"a 	c #1379B6",
"b 	c #5CCFFB",
"c 	c #5CD1FE",
"d 	c #2687BF",
"e 	c #1974B4",
"f 	c #1272B3",
"g 	c #3190C4",
"h 	c #3EA2D2",
"i 	c #0470B2",
"j 	c #036FB1",
"k 	c #3191C5",
"l 	c #41A5D5",
"m 	c #036EB1",
"n 	c #0770B2",
"o 	c #0B72B3",
"p 	c #0D72B3",
"q 	c #3190C5",
"r 	c #5CD1FF",
"s 	c #0F73B3",
"t 	c #40A5D5",
"u 	c #0573B5",
"v 	c #1374B3",
"w 	c #2077B4",
"x 	c #2E8EC3",
"y 	c #327CB6",
"z 	c #2C8DC3",
"A 	c #337CB6",
"B 	c #2C8DC2",
"C 	c #0574B4",
"D 	c #387DB6",
"E 	c #427FB7",
"F 	c #2D8DC2",
"G 	c #5BD1FF",
"H 	c #4680B7",
"I 	c #2D8CC1",
"J 	c #457FB7",
"K 	c #2A88BE",
"L 	c #1A72B2",
"M 	c #2A89BE",
"N 	c #3FA4D4",
"O 	c #3EA4D4",
"P 	c #2B89BE",
"Q 	c #2482BB",
"R 	c #2E79B5",
"S 	c #0472B3",
"T 	c #55C6F2",
"U 	c #5BD0FC",
"V 	c #1E7FBA",
"W 	c #2476B4",
"X 	c #2977B4",
"Y 	c #298AC1",
"Z 	c #59CBF6",
"` 	c #5BD0FB",
" .	c #379BCD",
"..	c #2B78B5",
"+.	c #0E76B5",
"@.	c #3293C7",
"#.	c #3395C9",
"$.	c #3495C9",
"%.	c #3496C9",
"&.	c #3396C9",
"*.	c #3495C8",
"=.	c #187CB8",
"-.	c #2274B3",
";.	c #2475B3",
">.	c #2875B3",
",.	c #1575B4",
"'.	c #0474B4",
").	c #2174B3",
"!.	c #2677B4",
"~.	c #347CB6",
"{.	c #347BB6",
"].	c #337BB6",
"^.	c #2A78B5",
"/.	c #2175B4",
"(.	c #FFFFFF",
"        + @ # $ $ % $ % % & % % & % & % % & % $ $ * = -         ",
"    ; > , ' ' ' ' ' , , ' ' ' ' ' ' ' ' ' ' ' ' ' ' ' ' ) !     ",
"  ~ , ' ' ' ' ' ' ' ' ' ' ' ' ' ' ' ' ' ' ' ' , ' ' ' ' ' ' {   ",
"  ] ' ' ' ^ / ( _ ( _ : < [ _ [ < [ } ( _ [ [ } [ | 1 ' ' , '   ",
"2 ' ' ' 3 (.(.(.(.(.(.(.(.(.(.(.(.(.(.(.(.(.(.(.(.(.(.8 ' , , 9 ",
"0 ' ' a (.(.(.(.(.(.(.(.(.(.(.(.(.(.(.(.(.(.(.(.(.(.(.(.d , ' e ",
"f ' ' g (.(.(.(.(.(.(.(.(.(.(.(.(.(.(.(.(.(.(.(.(.(.(.(.h ' ' i ",
"j ' ' k (.(.(.(.(.(.(.(.(.(.(.(.(.(.(.(.(.(.(.(.(.(.(.(.l , ' i ",
"m ' ' k (.(.(.(.(.(.(.(.(.(.(.(.(.(.(.(.(.(.(.(.(.(.(.(.l , ' i ",
"n ' ' g (.(.(.(.(.(.(.(.(.(.(.(.(.(.(.(.(.(.(.(.(.(.(.(.l ' ' i ",
"o ' ' k (.(.(.(.(.(.(.(.(.(.(.(.(.(.(.(.(.(.(.(.(.(.(.(.l , , i ",
"p ' ' q (.(.(.(.(.(.(.(.(.(.(.(.(.(.(.(.(.(.(.(.(.(.(.(.l , , i ",
"s ' ' k (.(.(.(.(.(.(.(.(.(.(.(.(.(.(.(.(.(.(.(.(.(.(.(.t u , i ",
"v ' ' q (.(.(.(.(.(.(.(.(.(.(.(.(.(.(.(.(.(.(.(.(.(.(.(.l , , i ",
"w ' ' x (.(.(.(.(.(.(.(.(.(.(.(.(.(.(.(.(.(.(.(.(.(.(.(.l , , i ",
"y ' ' z (.(.(.(.(.(.(.(.(.(.(.(.(.(.(.(.(.(.(.(.(.(.(.(.t , u i ",
"A ' ' B (.(.(.(.(.(.(.(.(.(.(.(.(.(.(.(.(.(.(.(.(.(.(.(.l C , i ",
"D ' ' B (.(.(.(.(.(.(.(.(.(.(.(.(.(.(.(.(.(.(.(.(.(.(.(.l u , i ",
"E ' ' F (.(.(.(.(.(.(.(.(.(.(.(.(.(.(.(.(.(.(.(.(.(.(.(.l , , i ",
"H ' ' I (.(.(.(.(.(.(.(.(.(.(.(.(.(.(.(.(.(.(.(.(.(.(.(.l , ' i ",
"J ' ' K (.(.(.(.(.(.(.(.(.(.(.(.(.(.(.(.(.(.(.(.(.(.(.(.t , , i ",
"L ' ' M (.(.(.(.(.(.(.(.(.(.(.(.(.(.(.(.(.(.(.(.(.(.(.(.N , , i ",
"j ' , M (.(.(.(.(.(.(.(.(.(.(.(.(.(.(.(.(.(.(.(.(.(.(.(.O , , i ",
"j ' , P (.(.(.(.(.(.(.(.(.(.(.(.(.(.(.(.(.(.(.(.(.(.(.(.O , , i ",
"j ' ' P (.(.(.(.(.(.(.(.(.(.(.(.(.(.(.(.(.(.(.(.(.(.(.(.O , , i ",
"j ' ' Q (.(.(.(.(.(.(.(.(.(.(.(.(.(.(.(.(.(.(.(.(.(.(.(.8 ' ' i ",
"R ' ' S (.(.(.(.(.(.(.(.(.(.(.(.(.(.(.(.(.(.(.(.(.(.(.(.V ' ' W ",
"X ' ' ' Y (.(.(.(.(.(.(.(.(.(.(.(.(.(.(.(.(.(.(.(.(.(. .' ' , ..",
"  S ' ' ' +.@.#.$.#.%.%.%.%.%.%.%.&.%.%.%.$.$.%.%.*.=.' ' , '   ",
"  -.' ' ' , ' C C C C C C , C C , C , C , ' , ' , ' ' ' ' ' ;.  ",
"    >.,.' ' ' , , C C , '.C C C , , , , , , ' , , , ' ' ' ).    ",
"        W !.~.{.~.~.~.~.].~.A A A A A ~.{.{.].A ~.~.^./.        "};
