/* XPM */
static char * mark_xpm[] = {
"32 32 113 2",
"  	c None",
". 	c #2F79B5",
"+ 	c #1A74B4",
"@ 	c #1E77B5",
"# 	c #0673B4",
"$ 	c #0773B4",
"% 	c #0774B4",
"& 	c #1C75B5",
"* 	c #1B74B3",
"= 	c #2F78B4",
"- 	c #2676B4",
"; 	c #0372B3",
"> 	c #0573B4",
", 	c #0473B4",
"' 	c #0372B4",
") 	c #3079B5",
"! 	c #2575B4",
"~ 	c #377AB5",
"{ 	c #0473B3",
"] 	c #0D75B4",
"^ 	c #2E8FC3",
"/ 	c #3391C4",
"( 	c #3392C4",
"_ 	c #3291C5",
": 	c #3392C5",
"< 	c #3292C4",
"[ 	c #3291C4",
"} 	c #2E8EC2",
"| 	c #0C75B4",
"1 	c #2F7AB5",
"2 	c #379ACD",
"3 	c #5BCFFA",
"4 	c #5CD2FF",
"5 	c #5DD2FF",
"6 	c #5BCEF9",
"7 	c #3A9ECF",
"8 	c #317AB6",
"9 	c #2375B4",
"0 	c #1379B6",
"a 	c #5CCFFB",
"b 	c #5CD1FE",
"c 	c #2687BF",
"d 	c #1974B4",
"e 	c #1272B3",
"f 	c #3190C4",
"g 	c #3EA2D2",
"h 	c #0470B2",
"i 	c #036FB1",
"j 	c #3191C5",
"k 	c #41A5D5",
"l 	c #036EB1",
"m 	c #0770B2",
"n 	c #0B72B3",
"o 	c #0D72B3",
"p 	c #3190C5",
"q 	c #5CD1FF",
"r 	c #0F73B3",
"s 	c #40A5D5",
"t 	c #0573B5",
"u 	c #1374B3",
"v 	c #2077B4",
"w 	c #2E8EC3",
"x 	c #327CB6",
"y 	c #2C8DC3",
"z 	c #337CB6",
"A 	c #2C8DC2",
"B 	c #0574B4",
"C 	c #387DB6",
"D 	c #427FB7",
"E 	c #2D8DC2",
"F 	c #5BD1FF",
"G 	c #4680B7",
"H 	c #2D8CC1",
"I 	c #457FB7",
"J 	c #2A88BE",
"K 	c #1A72B2",
"L 	c #2A89BE",
"M 	c #3FA4D4",
"N 	c #3EA4D4",
"O 	c #2B89BE",
"P 	c #2482BB",
"Q 	c #2E79B5",
"R 	c #0472B3",
"S 	c #55C6F2",
"T 	c #5BD0FC",
"U 	c #1E7FBA",
"V 	c #2476B4",
"W 	c #2977B4",
"X 	c #298AC1",
"Y 	c #59CBF6",
"Z 	c #5BD0FB",
"` 	c #379BCD",
" .	c #2B78B5",
"..	c #0E76B5",
"+.	c #3293C7",
"@.	c #3395C9",
"#.	c #3495C9",
"$.	c #3496C9",
"%.	c #3396C9",
"&.	c #3495C8",
"*.	c #187CB8",
"=.	c #2274B3",
"-.	c #2475B3",
";.	c #2875B3",
">.	c #1575B4",
",.	c #0474B4",
"'.	c #2174B3",
").	c #2677B4",
"!.	c #347CB6",
"~.	c #347BB6",
"{.	c #337BB6",
"].	c #2A78B5",
"^.	c #2175B4",
"        . + @ # # $ # $ $ % $ $ % $ % $ $ % $ # # & * =         ",
"    - ; > , , , , , > > , , , , , , , , , , , , , , , , ' )     ",
"  ! > , , , , , , , , , , , , , , , , , , , , > , , , , , , ~   ",
"  { , , , ] ^ / ( / ( _ : < ( < : < [ / ( < < [ < } | , , > ,   ",
"1 , , , 2 3 4 5 5 4 4 4 4 5 5 5 5 5 5 5 5 5 5 5 5 4 6 7 , > > 8 ",
"9 , , 0 a 4 4 4 5 4 4 4 5 5 5 5 4 5 5 5 5 5 5 5 5 4 4 b c > , d ",
"e , , f 4 5 5 5 5 5 4 5 5 5 5 5 4 5 4 5 4 5 5 5 5 4 4 4 g , , h ",
"i , , j 4 4 5 5 5 5 5 4 4 5 5 5 5 5 5 5 5 5 5 5 5 5 4 5 k > , h ",
"l , , j 4 5 5 5 5 5 5 5 5 5 5 5 5 5 5 5 5 5 5 5 4 5 5 5 k > , h ",
"m , , f 5 5 5 5 4 5 5 5 5 5 5 5 5 5 5 5 5 5 5 5 5 5 4 5 k , , h ",
"n , , j 4 4 5 5 5 5 5 5 5 5 5 5 5 5 5 5 4 5 5 5 5 5 5 5 k > > h ",
"o , , p q 4 5 5 4 5 4 5 5 5 5 5 5 5 5 5 5 5 5 5 5 5 5 5 k > > h ",
"r , , j q 4 4 5 5 5 5 4 4 5 5 5 5 5 4 5 5 5 5 5 5 5 5 4 s t > h ",
"u , , p q 4 4 5 5 5 4 4 4 5 5 5 4 5 4 5 4 5 5 5 4 4 4 4 k > > h ",
"v , , w q 5 5 5 5 5 5 5 4 4 5 5 4 4 5 4 5 5 5 5 5 4 5 4 k > > h ",
"x , , y q 4 4 5 5 5 5 5 5 5 5 5 5 5 5 5 5 5 5 5 5 4 4 4 s > t h ",
"z , , A q 4 5 5 5 5 5 4 5 5 5 5 5 5 5 5 5 5 5 5 4 4 4 4 k B > h ",
"C , , A q 5 5 5 5 5 5 5 4 5 5 5 5 5 4 4 5 5 4 4 5 4 4 4 k t > h ",
"D , , E F 4 5 5 5 5 5 5 5 5 5 5 5 5 5 5 5 5 5 5 5 5 5 5 k > > h ",
"G , , H F 5 5 5 5 5 5 5 5 5 5 5 5 5 5 5 5 5 5 5 5 4 5 5 k > , h ",
"I , , J F 5 5 5 5 5 5 5 5 5 5 5 5 5 5 5 5 5 5 5 4 5 5 4 s > > h ",
"K , , L F 5 5 5 5 5 5 5 5 5 5 5 5 5 4 5 5 5 5 5 5 4 4 4 M > > h ",
"i , > L q 5 5 5 5 5 5 4 5 5 5 5 5 4 4 5 5 5 5 5 5 4 4 4 N > > h ",
"i , > O F 5 5 5 5 5 5 4 5 5 5 5 5 5 4 5 5 5 5 5 5 4 5 5 N > > h ",
"i , , O F 5 5 5 5 5 5 5 5 5 5 5 5 5 5 5 5 5 5 5 4 4 5 5 N > > h ",
"i , , P 4 4 5 5 5 5 5 5 4 5 5 5 5 5 4 4 5 5 5 5 5 4 4 4 7 , , h ",
"Q , , R S 4 4 5 5 5 4 4 4 5 5 5 5 5 4 4 4 5 5 4 4 4 4 T U , , V ",
"W , , , X Y 4 4 4 4 4 4 4 4 4 4 4 4 4 4 4 4 4 4 4 4 Z ` , , >  .",
"  R , , , ..+.@.#.@.$.$.$.$.$.$.$.%.$.$.$.#.#.$.$.&.*., , > ,   ",
"  =., , , > , B B B B B B > B B > B > B > , > , > , , , , , -.  ",
"    ;.>., , , > > B B > ,.B B B > > > > > > , > > > , , , '.    ",
"        V ).!.~.!.!.!.!.{.!.z z z z z !.~.~.{.z !.!.].^.        "};
