/* XPM */
static char * pce16_xpm[] = {
"16 16 188 2",
"  	c None",
". 	c #EE8B39",
"+ 	c #E93932",
"@ 	c #DA3533",
"# 	c #F39B38",
"$ 	c #F79E32",
"% 	c #F7A43C",
"& 	c #F69B37",
"* 	c #F58E2F",
"= 	c #F4832C",
"- 	c #F2752B",
"; 	c #EF6C30",
"> 	c #EF552B",
", 	c #EF3322",
"' 	c #F6AD41",
") 	c #FAB74E",
"! 	c #FAB64B",
"~ 	c #F8A633",
"{ 	c #F79B31",
"] 	c #F58D2F",
"^ 	c #F37C29",
"/ 	c #F27231",
"( 	c #F26D42",
"_ 	c #F04D36",
": 	c #EA382C",
"< 	c #FBDAA2",
"[ 	c #FEEECF",
"} 	c #FFEDCC",
"| 	c #FCD28E",
"1 	c #F8A437",
"2 	c #F69231",
"3 	c #F6964C",
"4 	c #FAC5A7",
"5 	c #FCDBCE",
"6 	c #FBC3B9",
"7 	c #F1817C",
"8 	c #FBDDB3",
"9 	c #FFFFFF",
"0 	c #FAFCFF",
"a 	c #F6FAFE",
"b 	c #FEFFFF",
"c 	c #FAC681",
"d 	c #F79634",
"e 	c #FCE1CB",
"f 	c #FAFEFF",
"g 	c #F7FFFF",
"h 	c #FDEBEA",
"i 	c #DF7773",
"j 	c #F7B56C",
"k 	c #FEF1E0",
"l 	c #FBFDFF",
"m 	c #D9DADA",
"n 	c #787778",
"o 	c #C2C5C8",
"p 	c #FFEBD4",
"q 	c #FBA147",
"r 	c #F5F6F6",
"s 	c #BFC0C1",
"t 	c #878688",
"u 	c #D3DCDD",
"v 	c #E39090",
"w 	c #F5A353",
"x 	c #FFF4E9",
"y 	c #929294",
"z 	c #1C1819",
"A 	c #9C9C9E",
"B 	c #D7D5D1",
"C 	c #CBB6A2",
"D 	c #E7EAEC",
"E 	c #F4F4F4",
"F 	c #797879",
"G 	c #262224",
"H 	c #B9C0C2",
"I 	c #E08D8E",
"J 	c #B82828",
"K 	c #F48E39",
"L 	c #FBD0A7",
"M 	c #E3E4E5",
"N 	c #BEBFC1",
"O 	c #C8C9CC",
"P 	c #D1D3D3",
"Q 	c #D3D4D5",
"R 	c #B3B5B7",
"S 	c #F7F9F9",
"T 	c #DADBDC",
"U 	c #C1C3C4",
"V 	c #F1F6F5",
"W 	c #CD464A",
"X 	c #AC191B",
"Y 	c #F27B29",
"Z 	c #F5903F",
"` 	c #FCD4B5",
" .	c #FFFCF9",
"..	c #FFFCF5",
"+.	c #D6BBA7",
"@.	c #BDBEBF",
"#.	c #BFC0C2",
"$.	c #A29A99",
"%.	c #F7CEC0",
"&.	c #FFFEFE",
"*.	c #FEECEA",
"=.	c #DE6A6B",
"-.	c #B8151B",
";.	c #A21B1D",
">.	c #E66928",
",.	c #EA7227",
"'.	c #EC7421",
").	c #F07D2D",
"!.	c #F37A27",
"~.	c #F17427",
"{.	c #8D7C75",
"].	c #7C7D7F",
"^.	c #B15C46",
"/.	c #F53B19",
"(.	c #EB2D25",
"_.	c #D7151B",
":.	c #BD0D14",
"<.	c #A70D12",
"[.	c #931112",
"}.	c #D35728",
"|.	c #D1551D",
"1.	c #CC581D",
"2.	c #DD6022",
"3.	c #ED6727",
"4.	c #F46326",
"5.	c #C65C35",
"6.	c #785954",
"7.	c #F14024",
"8.	c #ED2B24",
"9.	c #D7181E",
"0.	c #B71016",
"a.	c #9E0B0F",
"b.	c #850406",
"c.	c #8C1613",
"d.	c #DF5132",
"e.	c #D7451D",
"f.	c #DB4C20",
"g.	c #E75123",
"h.	c #F05326",
"i.	c #F04E26",
"j.	c #F34523",
"k.	c #D04034",
"l.	c #ED2622",
"m.	c #E01B22",
"n.	c #C8161C",
"o.	c #AD1015",
"p.	c #98090C",
"q.	c #820405",
"r.	c #CF2A1D",
"s.	c #DE321F",
"t.	c #EF3823",
"u.	c #F23422",
"v.	c #EF2F24",
"w.	c #EC2824",
"x.	c #E72022",
"y.	c #D91920",
"z.	c #C9141A",
"A.	c #B81016",
"B.	c #9E0A0E",
"C.	c #840305",
"D.	c #740303",
"E.	c #D31E22",
"F.	c #E02124",
"G.	c #DD2527",
"H.	c #CD3133",
"I.	c #D81E23",
"J.	c #D7181F",
"K.	c #CB161E",
"L.	c #C01319",
"M.	c #A72024",
"N.	c #99181B",
"O.	c #910406",
"P.	c #7A0001",
"Q.	c #6F0202",
"R.	c #9C8489",
"S.	c #B6A9AC",
"T.	c #A08384",
"U.	c #B51E25",
"V.	c #B51319",
"W.	c #994649",
"X.	c #ABA3A6",
"Y.	c #A4979A",
"Z.	c #97999C",
"`.	c #A0A2A4",
" +	c #7B7B7F",
".+	c #C4C7CA",
"++	c #ACAFB1",
"@+	c #888A8C",
"      .                 + @     ",
"      # $ % & * = - ; > ,       ",
"      ' ) ! ~ { ] ^ / ( _ :     ",
"      < [ } | 1 2 3 4 5 6 7     ",
"    8 9 0 a b c d e 9 f g h i   ",
"  j k l m n o p q 9 r s t u v   ",
"  w x l y z A B C D E F G H I J ",
"  K L 9 M N O P Q R S T U V W X ",
"  Y Z `  ...+.@.#.$.%.&.*.=.-.;.",
"  >.,.'.).!.~.{.].^./.(._.:.<.[.",
"  }.|.1.2.3.4.5.6.7.8.9.0.a.b.c.",
"  d.e.f.g.h.i.j.k.l.m.n.o.p.q.  ",
"    r.s.t.u.v.w.x.y.z.A.B.C.D.  ",
"    E.F.G.H.I.J.K.L.M.N.O.P.Q.  ",
"        R.S.T.U.V.W.X.Y.        ",
"        Z.  `.     +.+++@+      "};
