/* XPM */
static char *swipl48_xpm[] = {
/* columns rows colors chars-per-pixel */
"48 48 225 2 ",
"   c #231F20",
".  c #6A0B0E",
"X  c #730B0E",
"o  c #770E11",
"O  c #6D0C10",
"+  c #691928",
"@  c #49243A",
"#  c #403E3F",
"$  c #591D2F",
"%  c #092C49",
"&  c #17314C",
"*  c #153352",
"=  c #26384E",
"-  c #293B51",
";  c #313E51",
":  c #163E64",
">  c #452840",
",  c #394557",
"<  c #3C424F",
"1  c #1E446B",
"2  c #4C4A4A",
"3  c #454D5A",
"4  c #575557",
"5  c #49515E",
"6  c #6D5054",
"7  c #4C5462",
"8  c #555B66",
"9  c #656364",
"0  c #67676C",
"q  c #746869",
"w  c #676A73",
"e  c #6D7179",
"r  c #74767A",
"t  c #5C6069",
"y  c #870E12",
"u  c #930F14",
"i  c #851013",
"p  c #941115",
"a  c #9D1116",
"s  c #99161A",
"d  c #A41217",
"f  c #AC1419",
"g  c #A41419",
"h  c #B3141A",
"j  c #BB151B",
"k  c #BF181E",
"l  c #B13519",
"z  c #981C29",
"x  c #963233",
"c  c #AA242D",
"v  c #A11C2A",
"b  c #C3161C",
"n  c #CC171E",
"m  c #CB1C1F",
"M  c #D5181F",
"N  c #D0171E",
"B  c #CD301E",
"V  c #DC1920",
"C  c #D41920",
"Z  c #CD1921",
"A  c #E31B22",
"S  c #EB1C23",
"D  c #D32C2F",
"F  c #EE2323",
"G  c #EE2C22",
"H  c #E82624",
"J  c #EF3422",
"K  c #E83B23",
"L  c #F03C21",
"P  c #F03722",
"I  c #EF3E3E",
"U  c #DB4B1F",
"Y  c #C4451C",
"T  c #D4452F",
"R  c #E94723",
"E  c #F04421",
"W  c #F14B21",
"Q  c #E75621",
"!  c #F15321",
"~  c #F25B21",
"^  c #EE463B",
"/  c #F36420",
"(  c #F36C20",
")  c #F47421",
"_  c #F57B21",
"`  c #EC6C35",
"'  c #BC3957",
"]  c #DB374A",
"[  c #824A49",
"{  c #A94C46",
"}  c #9D506B",
"|  c #BB5569",
" . c #866969",
".. c #887A7A",
"X. c #956768",
"o. c #AF6667",
"O. c #CD4A45",
"+. c #EF4E49",
"@. c #F17053",
"#. c #D96A6E",
"$. c #E97875",
"%. c #C85678",
"&. c #F58321",
"*. c #F68B21",
"=. c #F69422",
"-. c #F79C22",
";. c #F48537",
":. c #F79838",
">. c #F8A423",
",. c #F8A923",
"<. c #BA877A",
"1. c #F58448",
"2. c #F58755",
"3. c #EA8459",
"4. c #F5AB4D",
"5. c #F19471",
"6. c #F3AA72",
"7. c #36629B",
"8. c #3D69A3",
"9. c #325D93",
"0. c #526896",
"q. c #787B83",
"w. c #6A7994",
"e. c #587CB3",
"r. c #4D6EA7",
"t. c #5E6594",
"y. c #B06E93",
"u. c #7C828F",
"i. c #6C8BBE",
"p. c #6383B8",
"a. c #718AB8",
"s. c #7888A9",
"d. c #5E80B5",
"f. c #7993C3",
"g. c #848384",
"h. c #8C8B8C",
"j. c #898787",
"k. c #958B8B",
"l. c #949293",
"z. c #9C9B9B",
"x. c #989799",
"c. c #8F8F92",
"v. c #A39F9F",
"b. c #B58F8F",
"n. c #8792AB",
"m. c #989BA3",
"M. c #8F94B5",
"N. c #A19FA0",
"B. c #BB9CB0",
"V. c #99A4BE",
"C. c #A4A3A3",
"Z. c #A9A6A6",
"A. c #AEADAD",
"S. c #A4A5AA",
"D. c #B0AFAF",
"F. c #B8A8A9",
"G. c #B3ACB3",
"H. c #B3B2B2",
"J. c #B8B7B7",
"K. c #BCBBBB",
"L. c #B6B6B9",
"P. c #A8ACB5",
"I. c #CA9697",
"U. c #D99292",
"Y. c #DD8588",
"T. c #E6938C",
"R. c #F5AA88",
"E. c #F6B78B",
"W. c #EEAA94",
"Q. c #C1BEBE",
"!. c #C5B4B5",
"~. c #D2B2B1",
"^. c #E5B8B9",
"/. c #EFB1A7",
"(. c #CE9A9A",
"). c #FAC48D",
"_. c #F9CDB3",
"`. c #849CC8",
"'. c #8BA2CC",
"]. c #99A7CA",
"[. c #98ABD2",
"{. c #A3AAC5",
"}. c #ACB3C3",
"|. c #BBBDC4",
" X c #AAB9D9",
".X c #B2BDD8",
"XX c #C0BFC0",
"oX c #B7C2DC",
"OX c #BEC2CE",
"+X c #B9C5E1",
"@X c #BAC7E2",
"#X c #C4C3C4",
"$X c #CCCBCB",
"%X c #C6C6C8",
"&X c #D9CDCD",
"*X c #CCCED4",
"=X c #D4D3D3",
"-X c #DBDBDB",
";X c #D7D7DA",
":X c #D0D1D7",
">X c #F9D7C9",
",X c #E5DCDA",
"<X c #FBDBD6",
"1X c #EDCBCA",
"2X c #FDE8D7",
"3X c #C2CDE5",
"4X c #CBD4E9",
"5X c #CCD5EA",
"6X c #D4DCED",
"7X c #D9DCE7",
"8X c #DCE3F1",
"9X c #E4E4E4",
"0X c #ECEBEC",
"qX c #E4E5EA",
"wX c #FCEBE8",
"eX c #FCF2EC",
"rX c #E5EAF5",
"tX c #EAEDF6",
"yX c #E3E8F4",
"uX c #EEF2F9",
"iX c #F2F2F2",
"pX c #F3F6FB",
"aX c #FFFFFF",
"sX c #FBF5F5",
"dX c None",
/* pixels */
"dXdXdXdXdXdXdXdXdXdXdXdXdXdXdXdXdXdXdXdX-X;X=X=X=X$X$X$X#XdXdXdXdXdXdXdXdXdXdXdXdXdXdXdXdXdXdXdX",
"dXdXdXdXdXdXdXdXdXdXdXdXdXdXdXdX9X9X9X-X-X-X;X;X=X=X=X$X%X#X#XXXdXdXdXdXdXdXdXdXdXdXdXdXdXdXdXdX",
"dXdXdXdXdXdXdXdXdXdXdXdXdXdX9X9X9X9X9X-X9X-X-X;X;X=X=X$X$X%X#XK.J.J.H.dXdXdXdXdXdXdXdXdXdXdXdXdX",
"dXdXdXdXdXdXdXdXdXdXdXdXqXqX9X9X*X|.}.].V.{.}.OX$X=X=X$X$X%X#XXXK.J.H.D.dXdXdXdXdXdXdXdXdXdXdXdX",
"dXdXdXdXdXdXdXdXdXdX0X0XqX*X}.f.i.p.p.d.e.e.r.r.r.s.L.%X$X$X%XXXQ.J.L.D.A.H.dXdXdXdXdXdXdXdXdXdX",
"dXdXdXdXdXdXdXdXdX0XqX:X[.'.`.f.f.f.p.p.d.p.s.n.n.d.0.w.A.$X$X%X#XK.J.H.A.A.D.dXdXdXdXdXdXdXdXdX",
"dXdXdXdXdXdXdXdX0XqXoX[.[.'.'.f.f.f.M.L.$X-X-X-X-X=X$XXXn.x.XX$X#XK.K.L.D.D.D.D.dXdXdXdXdXdXdXdX",
"dXdXdXdXdXdXdX0XqX.X XG.B.{.'.'.`.|.7XqX0X0X0X9X9X9X-X-X=X$XXX%X#X!.!.I.F.A.A.D.D.dXdXdXdXdXdXdX",
"dXdXdXdXdXdX0XqXoXoX XU.) _ 3.N.*X0XiXiXiX0X0X9X9X9X9X-X;X=X=X#X$.F S O.G.G.A.A.D.D.dXdXdXdXdXdX",
"dXdXdXdXdXiX0X3X@X@XoX.X;.&.&.&._.sXiX>X/.6.5.2.1.5.T./.&X-X^.^ G F S I.J.J.D.D.Z.D.D.dXdXdXdXdX",
"dXdXdXdX0X0X7X3X3X3X@X+X5.*.*.*.*.E.:.*.&.&._ _ ( ( ~ ~ ! $.+.E G F S !.J.D.D.D.x.C.D.D.dXdXdXdX",
"dXdXdXdXiXqX5X6X4X4X3X@XR.=.-.-.-.=.-.=.*.*.&._ _ ( / ~ ! W E L J F S !.K.J.D.D.Z.u.D.D.dXdXdXdX",
"dXdXdXiX0X7X6X6X6X5X4X3X6.-.>.>.>.,.>.-.=.=.*.&._ ( ( ~ ~ W E L J G F !.K.L.H.A.A.e N.D.D.dXdXdX",
"dXdXdXiXqX8XyX8X8X6X7X5X4.>.,.,.,.,.,.>.-.=.*.&._ ) ( / ~ ! W E J G F ~.K.L.H.D.D.h.r D.D.D.dXdX",
"dXdXiX0XrXtXtXrXrX8X6X&X>.).2XeXeX2X_.4.>.-.=.*.&._ ( / W.<X2XwX<X/.+.$.K.J.H.A.A.C.5 C.D.D.dXdX",
"dXdX0X0XuXuXuXuXtX8X7X6.wXaXaXaXaXaXaXeX).-.=.*.&._ 2.wXaXaXaXaXaXaXwX$.I.J.H.A.A.A.t h.D.D.dXdX",
"dXiX0X0XpXpXaXpXuXqXE.wXaXaXaXaXaXaXaXaXaXE.-.*.&.1.eXaXaXaXaXaXaXaXaXaX$.F.D.D.D.D.r 0 Z.D.H.dX",
"dX0X0XtXpXpXaXpXuX,X_.aXaXaXaXaXaXaXaXaXaXeX-.*.&.>XaXaXaXaXaXaXaXaXaXaX<X#.D.D.D.D.c., C.D.D.dX",
"dX0X0XtXpXpXpXpXuX6.sXaXaXaXaXiX=X%X=XiXaXaXE.*.1.aXaXaXaXaXiX=X#X=XiXaXaXY.b.D.A.A.m.% c.D.D.dX",
"dX0XqXtXpXpXpXuX>X6.aXaXaXaXsX%Xl.9 h.K.sXaX>X*.E.aXaXaXaXiXXXh.9 l.#XiXaX^.| D.D.A.Z.& r A.D.H.",
"dX0X9XyXrXtXtXtXW.E.aXaXaXaX9Xz.iXr   x.-XaX2X*./.aXaXaXaX-Xz.pX4   N.9XaX1Xb Z.A.D.A., t A.D.H.",
"0X0X7XqXyXyXrXqX;.6.aXaXaXaX-Xl.2     j.=XaX&X(.~.iXaXaXaX=Xj.2     l.-XaX^.j y.A.D.A., 7 S.D.H.",
"9X0X7X7X8X8X8X&X_ ;.aXaXaXaX0XL.2   # H.-X#X%X$X#XA.9XaXaX9XH.#   2 H.0XaXU.j o.D.A.A.5 , C.D.D.",
"9X9X7X6X6X6X6X^._ _ >XaXaXaXaX-XJ.Z.J.=X%X%X-X-X$XJ.z.aXaXaX=XJ.A.K.;XaXiXD h { A.D.A., , z.D.D.",
"9X9X7X4X4X4X4XW.) ) 2.sXaXaXaXaXiXqX0XaXD.$X-X-X&XJ.c.qXaXaXaXiX0XiXaXpXU.j h g A.D.A.= - N.D.D.",
"9X9X;X@X@X3X3XU.( ( _ 5.eXaXaXaXaXaXaXaXC.Q.=X=X%XD.j.9XaXaXaXaXaXaXaXW.b j f a Z.D.C.% , N.D.H.",
"9X9X;X+X+X+X+XY./ ( ( ) 1._.eXaXaXsX,X5.<.Z.J.J.D.x. .@.1XeXaXaXsX1X#.n j h d a Z.D.l.% , C.D.H.",
"dX,X;X X X+X.XY.Q / / ( ( ( ( ` 2.) ) _ O.<.l.l.j.q T R G G +.+.S M m b j f a u Z.A.q.% 8 Z.D.H.",
"dX-X,X X X X X(.U ~ ~ / / ( / ( / / / / / { 9 9 4 [ L P G F F S V C n k f d u x D.A.5 % w A.D.dX",
"dX;X;X.X[.[.[.B.U l U U Q Q Q / ~ ~ ~ ! ! R 6 4 4 T P G F F S A C k h a d i o X.D.z.% % g.A.D.dX",
"dX-X7XXX'.[.[.[.E U W U l Q B Y Q ! ! W W E O.4 { J G G F S A j a k g i d p i k.D.w % = z.D.H.dX",
"dXdX;X:X'.'.'.`.#.K E R R W U R W E W E E L K [ K G F F S A M n f j h g a y i v.z.& % 8 Z.D.H.dX",
"dXdX=X;X{.`.f.`.y.B B K B K K E E L L L L J J D G F S S V M N n j f a p o O [ Z.7 % % h.A.A.dXdX",
"dXdX=X=X%Xa.f.f.M.J B P B l L J P P P J G G F F F F S V M n b j f p X p y X X.e % % 8 N.D.D.dXdX",
"dXdXdX$X=XV.i.i.f.] G G G J G G G G G G G F F S S A V M m b j h d d p y o o 6 % % & c.A.D.dXdXdX",
"dXdXdX$X$X#Xa.p.e.%.m Z H F F F F F F S S S S A V M n b b j f g a p y X . O & % % e Z.D.H.dXdXdX",
"dXdXdXdX%X$XP.d.e.y.M N A A A S S S S A A V V M N n b b h d g a p y i o . + % % 8 C.A.A.dXdXdXdX",
"dXdXdXdXdX%X%XM.e.w.V V ] | V A A D D V M M m b b j h d g v s i u + $ X . $ % 5 x.A.A.H.dXdXdXdX",
"dXdXdXdXdX#X#XK.y.r.M ' r.8.t.} ..c.h.X.D j k j h f v X.h.l.<.6 @ % % @ . @ 4 x.A.A.H.dXdXdXdXdX",
"dXdXdXdXdXdXQ.Q.|.f.} 8.8.7.0.g.A.|.K.N. .x c v v z q v.J.Q.S.u.2 % % % @ 9 z.A.A.A.dXdXdXdXdXdX",
"dXdXdXdXdXdXdXJ.L.L.m.0.7.9.0 m.OX=X=XJ.j., * % % & <.H.=X-X%XZ.0 % % , u.Z.A.A.D.dXdXdXdXdXdXdX",
"dXdXdXdXdXdXdXdXL.L.L.Z.c.9.9 C.S.u.u.C.c.3 % % % = u.Z.q.e m.Z.q < r z.Z.D.A.D.dXdXdXdXdXdXdXdX",
"dXdXdXdXdXdXdXdXdXL.D.H.D.C.9 q.1 : : * 0 < % % % < 0 - % % = r 9 z.A.A.A.A.H.dXdXdXdXdXdXdXdXdX",
"dXdXdXdXdXdXdXdXdXdXdXD.D.D.h.z.l.u.w 7 5 < & % & , 5 8 w j.x.C.g.D.A.A.A.H.dXdXdXdXdXdXdXdXdXdX",
"dXdXdXdXdXdXdXdXdXdXdXdXD.D.A.A.D.D.A.Z.C.N.z.z.z.N.C.Z.A.A.A.A.D.D.D.D.dXdXdXdXdXdXdXdXdXdXdXdX",
"dXdXdXdXdXdXdXdXdXdXdXdXdXdXH.D.D.D.D.D.D.D.H.D.D.D.D.D.D.D.A.D.D.D.dXdXdXdXdXdXdXdXdXdXdXdXdXdX",
"dXdXdXdXdXdXdXdXdXdXdXdXdXdXdXdXdXH.H.D.D.D.D.D.D.D.D.D.D.D.H.L.dXdXdXdXdXdXdXdXdXdXdXdXdXdXdXdX",
"dXdXdXdXdXdXdXdXdXdXdXdXdXdXdXdXdXdXdXdXdXH.H.H.H.H.H.dXdXdXdXdXdXdXdXdXdXdXdXdXdXdXdXdXdXdXdXdX"
};
